<?xml version="1.0" encoding="UTF-8"?>
<svg version="1.1" xmlns="http://www.w3.org/2000/svg" width="512" height="512">
<path d="M0 0 C1.69757446 -0.03939697 1.69757446 -0.03939697 3.42944336 -0.07958984 C9.75631432 -0.0919017 13.65856041 0.07631628 18.4375 4.375 C22.06583663 8.19430172 22.74750458 11.25779006 22.9375 16.375 C22.74750458 21.49220994 22.06583663 24.55569828 18.4375 28.375 C12.71053129 33.08384094 7.26273809 33.29528 0.1640625 33.69921875 C-45.62743286 36.30843152 -87.55513466 55.31126479 -118.5625 89.375 C-142.34121948 116.58715176 -159.53205435 153.82859563 -159.765625 190.3984375 C-159.77268463 191.13763931 -159.77974426 191.87684113 -159.78701782 192.63844299 C-160.08866482 214.69281451 -160.08866482 214.69281451 -156.5625 236.375 C-156.36382324 237.18855957 -156.16514648 238.00211914 -155.96044922 238.84033203 C-145.41687718 281.41740831 -119.18994792 318.91561374 -81.75 342.0625 C-43.53297131 365.08509934 1.34626166 373.04352667 44.97753906 362.77734375 C88.57638301 351.93847968 126.28698323 324.81314663 149.51220703 286.25976562 C163.52080749 262.37194675 171.16540196 237.0183731 172.75488281 209.40820312 C173.29671754 200.31093701 173.77251223 193.03998777 180.4375 186.375 C185.31050319 183.28170232 190.8793616 183.77895299 196.4375 184.375 C201.09101916 186.53556247 204.42374405 189.61286617 206.4375 194.375 C207.03971582 198.31997216 207.00533665 202.20363875 206.9375 206.1875 C206.92468994 207.33460449 206.91187988 208.48170898 206.89868164 209.66357422 C205.66920512 262.96521206 180.75175277 311.42143384 143.00390625 348.05859375 C116.15958676 373.43721193 82.25774684 389.47928064 46.4375 397.375 C45.67630859 397.55289062 44.91511719 397.73078125 44.13085938 397.9140625 C18.2413616 403.76532119 -12.91524638 402.50727331 -38.5625 396.375 C-39.55024414 396.13894043 -40.53798828 395.90288086 -41.55566406 395.65966797 C-93.79783174 382.67031207 -137.14654064 349.74698448 -165.5625 304.375 C-165.94116211 303.77558594 -166.31982422 303.17617188 -166.70996094 302.55859375 C-178.5378301 283.56014302 -185.83778323 262.14837343 -190.5625 240.375 C-190.73894043 239.61670898 -190.91538086 238.85841797 -191.09716797 238.07714844 C-196.95230667 212.1845529 -195.69576383 181.02639632 -189.5625 155.375 C-189.32644043 154.38725586 -189.09038086 153.39951172 -188.84716797 152.38183594 C-176.21263724 101.56674716 -144.10535741 57.07447626 -99.5 29.5625 C-77.20860175 16.19195106 -54.03943828 7.58692182 -28.5625 2.375 C-27.50071533 2.15457031 -27.50071533 2.15457031 -26.41748047 1.9296875 C-17.69551986 0.20683108 -8.86192162 0.13018818 0 0 Z " fill="#8D059A" transform="translate(209.5625,95.625)"/>
<path d="M0 0 C5.00685202 2.32460987 7.27137555 5.27911553 10 10 C11.04281673 13.14173996 11.72503225 16.33256718 12.40234375 19.5703125 C12.60678604 20.48779266 12.81122833 21.40527283 13.02186584 22.35055542 C13.67242006 25.27287865 14.30673884 28.19834545 14.9375 31.125 C20.48561253 58.61325343 20.48561253 58.61325343 38.42041016 79.33935547 C50.14765965 86.88892494 64.43906607 88.81331694 77.83496094 91.70043945 C80.70226684 92.32245139 83.56593321 92.9595253 86.4296875 93.59765625 C87.30164764 93.78006363 88.17360779 93.96247101 89.07199097 94.15040588 C95.3885016 95.56303353 99.83382382 97.71981455 104.375 102.5 C106.77303575 107.66500009 106.75381535 112.4002288 106 118 C103.67539013 123.00685202 100.72088447 125.27137555 96 128 C92.85826004 129.04281673 89.66743282 129.72503225 86.4296875 130.40234375 C85.05346725 130.70900719 85.05346725 130.70900719 83.64944458 131.02186584 C80.72712135 131.67242006 77.80165455 132.30673884 74.875 132.9375 C47.38674657 138.48561253 47.38674657 138.48561253 26.66064453 156.42041016 C19.11107506 168.14765965 17.18668306 182.43906607 14.29956055 195.83496094 C13.67754861 198.70226684 13.0404747 201.56593321 12.40234375 204.4296875 C12.21993637 205.30164764 12.03752899 206.17360779 11.84959412 207.07199097 C10.43696647 213.3885016 8.28018545 217.83382382 3.5 222.375 C-1.66500009 224.77303575 -6.4002288 224.75381535 -12 224 C-17.00685202 221.67539013 -19.27137555 218.72088447 -22 214 C-23.04281673 210.85826004 -23.72503225 207.66743282 -24.40234375 204.4296875 C-24.70900719 203.05346725 -24.70900719 203.05346725 -25.02186584 201.64944458 C-25.67242006 198.72712135 -26.30673884 195.80165455 -26.9375 192.875 C-32.48561253 165.38674657 -32.48561253 165.38674657 -50.42041016 144.66064453 C-62.14765965 137.11107506 -76.43906607 135.18668306 -89.83496094 132.29956055 C-92.70226684 131.67754861 -95.56593321 131.0404747 -98.4296875 130.40234375 C-99.30164764 130.21993637 -100.17360779 130.03752899 -101.07199097 129.84959412 C-107.3885016 128.43696647 -111.83382382 126.28018545 -116.375 121.5 C-118.77303575 116.33499991 -118.75381535 111.5997712 -118 106 C-115.67539013 100.99314798 -112.72088447 98.72862445 -108 96 C-104.85826004 94.95718327 -101.66743282 94.27496775 -98.4296875 93.59765625 C-97.51220734 93.39321396 -96.59472717 93.18877167 -95.64944458 92.97813416 C-92.72712135 92.32757994 -89.80165455 91.69326116 -86.875 91.0625 C-59.38674657 85.51438747 -59.38674657 85.51438747 -38.66064453 67.57958984 C-31.11107506 55.85234035 -29.18668306 41.56093393 -26.29956055 28.16503906 C-25.67754861 25.29773316 -25.0404747 22.43406679 -24.40234375 19.5703125 C-24.21993637 18.69835236 -24.03752899 17.82639221 -23.84959412 16.92800903 C-22.43696647 10.6114984 -20.28018545 6.16617618 -15.5 1.625 C-10.33499991 -0.77303575 -5.5997712 -0.75381535 0 0 Z M-7 79 C-8.08591613 80.58224899 -9.0924146 82.21920412 -10.0625 83.875 C-17.0561151 95.09932053 -26.7648042 105.42005322 -39 111 C-39 111.66 -39 112.32 -39 113 C-37.41775101 114.08591613 -35.78079588 115.0924146 -34.125 116.0625 C-22.90067947 123.0561151 -12.57994678 132.7648042 -7 145 C-6.34 145 -5.68 145 -5 145 C-3.91408387 143.41775101 -2.9075854 141.78079588 -1.9375 140.125 C5.0561151 128.90067947 14.7648042 118.57994678 27 113 C27 112.34 27 111.68 27 111 C25.41775101 109.91408387 23.78079588 108.9075854 22.125 107.9375 C10.90067947 100.9438849 0.57994678 91.2351958 -5 79 C-5.66 79 -6.32 79 -7 79 Z " fill="#98068E" transform="translate(390,16)"/>
<path d="M0 0 C4.96763371 2.30640137 7.37448784 5.24924647 10 10 C10.53745812 12.86999164 10.50762787 15.66288529 10.45410156 18.57568359 C10.45468567 19.41536682 10.45526978 20.25505005 10.45587158 21.12017822 C10.45309739 23.8800268 10.4220375 26.63877893 10.390625 29.3984375 C10.38316023 31.31799734 10.37746841 33.23756482 10.37347412 35.15713501 C10.35823638 40.19774592 10.31897054 45.23789232 10.2746582 50.27832031 C10.23366539 55.42636838 10.21545454 60.57449185 10.1953125 65.72265625 C10.15247454 75.81530772 10.08424569 85.90761516 10 96 C11.06409088 95.99111755 12.12818176 95.98223511 13.22451782 95.9730835 C23.25899945 95.89195052 33.29341442 95.83201192 43.3281498 95.79275131 C48.48697214 95.77188834 53.64552942 95.74359403 58.80419922 95.69824219 C63.78385392 95.65473876 68.76325386 95.63085319 73.74308395 95.62049103 C75.64168686 95.61310776 77.54027602 95.59868986 79.43877029 95.57707977 C82.10092403 95.54798592 84.76202893 95.54404648 87.42431641 95.54589844 C88.59820419 95.52432678 88.59820419 95.52432678 89.79580688 95.50231934 C94.98692729 95.54132131 97.85376005 96.62285232 102 100 C105.62833663 103.81930172 106.31000458 106.88279006 106.5 112 C106.31000458 117.11720994 105.62833663 120.18069828 102 124 C97.02153695 128.05500046 93.57341515 128.56709894 87.42431641 128.45410156 C86.58463318 128.45468567 85.74494995 128.45526978 84.87982178 128.45587158 C82.1199732 128.45309739 79.36122107 128.4220375 76.6015625 128.390625 C74.68200266 128.38316023 72.76243518 128.37746841 70.84286499 128.37347412 C65.80225408 128.35823638 60.76210768 128.31897054 55.72167969 128.2746582 C50.57363162 128.23366539 45.42550815 128.21545454 40.27734375 128.1953125 C30.18469228 128.15247454 20.09238484 128.08424569 10 128 C10.00888245 129.06409088 10.01776489 130.12818176 10.0269165 131.22451782 C10.10804948 141.25899945 10.16798808 151.29341442 10.20724869 161.3281498 C10.22811166 166.48697214 10.25640597 171.64552942 10.30175781 176.80419922 C10.34526124 181.78385392 10.36914681 186.76325386 10.37950897 191.74308395 C10.38689224 193.64168686 10.40131014 195.54027602 10.42292023 197.43877029 C10.45201408 200.10092403 10.45595352 202.76202893 10.45410156 205.42431641 C10.46848267 206.20690826 10.48286377 206.98950012 10.49768066 207.79580688 C10.45867869 212.98692729 9.37714768 215.85376005 6 220 C2.18069828 223.62833663 -0.88279006 224.31000458 -6 224.5 C-11.11720994 224.31000458 -14.18069828 223.62833663 -18 220 C-22.05500046 215.02153695 -22.56709894 211.57341515 -22.45410156 205.42431641 C-22.45468567 204.58463318 -22.45526978 203.74494995 -22.45587158 202.87982178 C-22.45309739 200.1199732 -22.4220375 197.36122107 -22.390625 194.6015625 C-22.38316023 192.68200266 -22.37746841 190.76243518 -22.37347412 188.84286499 C-22.35823638 183.80225408 -22.31897054 178.76210768 -22.2746582 173.72167969 C-22.23366539 168.57363162 -22.21545454 163.42550815 -22.1953125 158.27734375 C-22.15247454 148.18469228 -22.08424569 138.09238484 -22 128 C-23.06409088 128.00888245 -24.12818176 128.01776489 -25.22451782 128.0269165 C-35.25899945 128.10804948 -45.29341442 128.16798808 -55.3281498 128.20724869 C-60.48697214 128.22811166 -65.64552942 128.25640597 -70.80419922 128.30175781 C-75.78385392 128.34526124 -80.76325386 128.36914681 -85.74308395 128.37950897 C-87.64168686 128.38689224 -89.54027602 128.40131014 -91.43877029 128.42292023 C-94.10092403 128.45201408 -96.76202893 128.45595352 -99.42431641 128.45410156 C-100.20690826 128.46848267 -100.98950012 128.48286377 -101.79580688 128.49768066 C-106.98692729 128.45867869 -109.85376005 127.37714768 -114 124 C-117.62833663 120.18069828 -118.31000458 117.11720994 -118.5 112 C-118.31000458 106.88279006 -117.62833663 103.81930172 -114 100 C-109.02153695 95.94499954 -105.57341515 95.43290106 -99.42431641 95.54589844 C-98.58463318 95.54531433 -97.74494995 95.54473022 -96.87982178 95.54412842 C-94.1199732 95.54690261 -91.36122107 95.5779625 -88.6015625 95.609375 C-86.68200266 95.61683977 -84.76243518 95.62253159 -82.84286499 95.62652588 C-77.80225408 95.64176362 -72.76210768 95.68102946 -67.72167969 95.7253418 C-62.57363162 95.76633461 -57.42550815 95.78454546 -52.27734375 95.8046875 C-42.18469228 95.84752546 -32.09238484 95.91575431 -22 96 C-22.00888245 94.93590912 -22.01776489 93.87181824 -22.0269165 92.77548218 C-22.10804948 82.74100055 -22.16798808 72.70658558 -22.20724869 62.6718502 C-22.22811166 57.51302786 -22.25640597 52.35447058 -22.30175781 47.19580078 C-22.34526124 42.21614608 -22.36914681 37.23674614 -22.37950897 32.25691605 C-22.38689224 30.35831314 -22.40131014 28.45972398 -22.42292023 26.56122971 C-22.45201408 23.89907597 -22.45595352 21.23797107 -22.45410156 18.57568359 C-22.46848267 17.79309174 -22.48286377 17.01049988 -22.49768066 16.20419312 C-22.45867869 11.01307271 -21.37714768 8.14623995 -18 4 C-12.72867143 -1.00776214 -6.89190982 -0.92775709 0 0 Z " fill="#8D059A" transform="translate(222,184)"/>
</svg>
