<?xml version="1.0" standalone="no"?>
<!DOCTYPE svg PUBLIC "-//W3C//DTD SVG 20010904//EN"
 "http://www.w3.org/TR/2001/REC-SVG-20010904/DTD/svg10.dtd">
<svg version="1.0" xmlns="http://www.w3.org/2000/svg"
 width="512.000000pt" height="512.000000pt" viewBox="0 0 512.000000 512.000000"
 preserveAspectRatio="xMidYMid meet">

<g transform="translate(0.000000,512.000000) scale(0.100000,-0.100000)"
fill="#000000" stroke="none">
<path d="M3770 4938 c-25 -13 -53 -37 -62 -54 -10 -17 -41 -132 -69 -255 -61
-266 -87 -328 -173 -415 -87 -86 -149 -112 -415 -173 -123 -28 -238 -59 -255
-69 -34 -19 -76 -92 -76 -132 0 -40 42 -113 76 -132 17 -10 132 -41 255 -69
265 -61 325 -85 413 -172 89 -87 114 -147 174 -414 27 -123 58 -237 69 -255
20 -36 92 -78 133 -78 41 0 113 42 133 78 11 18 42 132 69 255 60 265 84 324
173 412 88 89 148 114 405 170 118 26 233 57 255 69 43 23 85 89 85 136 0 40
-42 113 -76 133 -18 10 -133 41 -255 68 -267 61 -326 86 -414 174 -88 88 -113
147 -174 414 -28 123 -59 238 -69 255 -19 34 -92 76 -132 76 -14 0 -46 -10
-70 -22z m110 -815 c43 -74 168 -198 243 -243 31 -19 57 -37 57 -40 0 -3 -26
-21 -57 -40 -75 -45 -200 -169 -243 -242 -19 -32 -37 -58 -40 -58 -3 0 -21 26
-40 58 -44 73 -169 198 -242 242 -32 19 -58 37 -58 40 0 3 26 21 58 40 73 44
198 169 242 243 19 31 37 57 40 57 3 0 21 -26 40 -57z"/>
<path d="M1965 4149 c-371 -38 -720 -176 -1018 -401 -177 -133 -380 -361 -499
-558 -398 -660 -379 -1498 50 -2138 659 -987 2032 -1186 2942 -427 431 359
684 870 716 1445 6 100 4 121 -11 154 -53 111 -198 127 -272 29 -24 -32 -27
-46 -35 -166 -15 -237 -59 -420 -147 -616 -322 -718 -1103 -1115 -1878 -955
-204 42 -450 149 -623 272 -122 86 -316 280 -402 402 -199 280 -308 628 -308
975 2 759 513 1421 1252 1620 108 29 290 55 386 55 92 0 149 28 180 90 12 24
22 56 22 70 0 14 -10 46 -22 70 -43 85 -114 102 -333 79z"/>
<path d="M2090 3258 c-33 -17 -51 -35 -67 -68 -23 -44 -23 -49 -23 -457 l0
-413 -413 0 c-408 0 -413 0 -457 -22 -48 -25 -90 -89 -90 -138 0 -49 42 -113
90 -138 44 -22 49 -22 457 -22 l412 0 3 -427 3 -428 23 -33 c53 -74 156 -92
226 -39 66 51 66 49 66 511 l0 415 428 3 429 3 35 27 c41 31 68 82 68 127 0
44 -33 105 -72 133 l-33 23 -427 3 -428 3 0 412 c0 408 0 413 -22 457 -25 48
-89 90 -138 90 -14 0 -46 -10 -70 -22z"/>
</g>
</svg>
